<svg width="853" height="380" viewBox="0 0 853 380" fill="none" xmlns="http://www.w3.org/2000/svg">
<path d="M0 104.612C10.5882 112.659 10.1647 120.706 10.1647 133.412V348.141C10.1647 367.2 14.4 379.059 34.7294 379.059H80.8941C70.3059 370.588 71.1529 362.965 71.1529 350.259V277.412C84.2824 291.812 102.071 299.859 125.788 299.859C179.576 299.859 212.612 257.929 212.612 199.906C212.612 141.459 181.694 101.224 128.753 101.224C99.1059 101.224 79.6235 114.776 71.1529 132.141V131.718C70.3059 114.776 65.2235 104.612 46.1647 104.612H0ZM71.1529 175.341C74.9647 139.341 97.4118 113.929 112.235 113.929C136.376 113.929 147.388 153.741 147.388 199.482C147.388 244.8 136.376 289.271 112.659 289.271C90.6353 289.271 73.2706 251.576 71.1529 209.647V175.341ZM230.4 252.847C230.4 273.176 248.612 299.859 296.471 299.859C324.847 299.859 343.906 285.459 355.341 267.247V267.671C355.765 285.459 362.541 296.471 391.765 296.471H425.647C415.059 288 415.906 280.376 415.906 268.094V156.282C415.906 116.471 368.471 101.224 329.929 101.224C291.812 101.224 258.776 109.271 250.306 128.753C240.141 150.776 259.624 171.953 294.776 173.224C294.353 173.224 302.4 106.306 329.929 106.306C351.529 106.306 355.341 138.918 355.341 157.976V178.729C324.424 201.176 230.4 207.106 230.4 252.847ZM294.353 248.188C294.353 213.035 336.282 204.565 355.341 190.165V218.965C355.341 244.8 346.871 279.106 318.071 279.106C306.635 279.106 294.353 268.518 294.353 248.188ZM555.447 265.553C555.447 284.612 559.682 296.471 580.012 296.471H626.176C615.588 288 616.435 280.376 616.435 267.671V30.9177C616.435 11.8588 611.776 0 591.447 0H545.282C555.871 8.47059 555.447 16.0941 555.447 28.8V265.553ZM646.082 199.482C646.082 254.965 682.506 299.859 749 299.859C815.494 299.859 852.765 254.965 852.765 199.482C852.765 143.576 815.918 101.224 749 101.224C682.506 101.224 646.082 144 646.082 199.482ZM710.882 199.059C710.882 152.894 721.894 107.153 748.576 107.153C775.259 107.153 787.541 153.741 787.541 199.059C787.541 245.224 774.835 293.506 748.576 293.506C722.318 293.506 710.882 245.224 710.882 199.059Z" fill="white"/>
<path d="M477.335 295.506C457.006 295.506 452.771 283.647 452.771 264.588V130.835C452.771 118.129 453.194 110.506 442.606 102.035H488.771C509.1 102.035 513.759 113.894 513.759 132.953V266.706C513.759 279.412 512.912 287.035 523.5 295.506H477.335Z" fill="white"/>
<path d="M513.5 45C513.5 62.1208 499.621 76 482.5 76C465.379 76 451.5 62.1208 451.5 45C451.5 27.8792 465.379 14 482.5 14C499.621 14 513.5 27.8792 513.5 45Z" fill="white"/>
</svg>
